<mxfile host="app.diagrams.net" modified="2021-06-29T14:42:43.473Z" agent="5.0 (Windows NT 10.0; Win64; x64) AppleWebKit/537.36 (KHTML, like Gecko) Chrome/91.0.4472.124 Safari/537.36" etag="E9yTvqlGJmuEFgStrwGJ" version="14.8.1" type="github">
  <diagram id="xSrLjS2qFE7dPZKFVFYC" name="Page-1">
    <mxGraphModel dx="1102" dy="525" grid="1" gridSize="10" guides="1" tooltips="1" connect="1" arrows="1" fold="1" page="1" pageScale="1" pageWidth="827" pageHeight="1169" math="0" shadow="0">
      <root>
        <mxCell id="0" />
        <mxCell id="1" parent="0" />
        <mxCell id="DtRh-H-SdKxsgD-GIzvi-2" value="La totalité des recettes sont affichées" style="rounded=1;whiteSpace=wrap;html=1;" vertex="1" parent="1">
          <mxGeometry x="60" y="30" width="120" height="60" as="geometry" />
        </mxCell>
        <mxCell id="DtRh-H-SdKxsgD-GIzvi-3" value="" style="endArrow=classic;html=1;" edge="1" parent="1" target="DtRh-H-SdKxsgD-GIzvi-2">
          <mxGeometry width="50" height="50" relative="1" as="geometry">
            <mxPoint x="350" y="59" as="sourcePoint" />
            <mxPoint x="270" y="59" as="targetPoint" />
          </mxGeometry>
        </mxCell>
        <mxCell id="DtRh-H-SdKxsgD-GIzvi-7" value="Non" style="text;html=1;align=center;verticalAlign=middle;resizable=0;points=[];autosize=1;strokeColor=none;" vertex="1" parent="1">
          <mxGeometry x="250" y="30" width="40" height="20" as="geometry" />
        </mxCell>
        <mxCell id="DtRh-H-SdKxsgD-GIzvi-8" value="Oui&lt;br&gt;" style="text;html=1;align=center;verticalAlign=middle;resizable=0;points=[];autosize=1;strokeColor=none;" vertex="1" parent="1">
          <mxGeometry x="380" y="120" width="30" height="20" as="geometry" />
        </mxCell>
        <mxCell id="DtRh-H-SdKxsgD-GIzvi-12" value="&lt;span&gt;L&#39;utilisateur tape 3 lettres ou plus dans l&#39;input principal&lt;/span&gt;" style="rounded=0;whiteSpace=wrap;html=1;" vertex="1" parent="1">
          <mxGeometry x="353.5" y="30" width="120" height="60" as="geometry" />
        </mxCell>
        <mxCell id="DtRh-H-SdKxsgD-GIzvi-14" value="" style="endArrow=classic;html=1;" edge="1" parent="1">
          <mxGeometry width="50" height="50" relative="1" as="geometry">
            <mxPoint x="414" y="95" as="sourcePoint" />
            <mxPoint x="414" y="185" as="targetPoint" />
          </mxGeometry>
        </mxCell>
        <mxCell id="DtRh-H-SdKxsgD-GIzvi-15" value="&lt;span&gt;Les recettes sont filtrées, la valeur saisie dans le champs de recherche, est inclus dans le titre, la description, ou les ingrédients d&#39;une ou plusieurs recettes?&lt;/span&gt;" style="whiteSpace=wrap;html=1;aspect=fixed;" vertex="1" parent="1">
          <mxGeometry x="329" y="190" width="170" height="170" as="geometry" />
        </mxCell>
        <mxCell id="DtRh-H-SdKxsgD-GIzvi-16" value="" style="endArrow=classic;html=1;" edge="1" parent="1">
          <mxGeometry width="50" height="50" relative="1" as="geometry">
            <mxPoint x="510" y="270" as="sourcePoint" />
            <mxPoint x="620" y="170" as="targetPoint" />
            <Array as="points">
              <mxPoint x="600" y="190" />
            </Array>
          </mxGeometry>
        </mxCell>
        <mxCell id="DtRh-H-SdKxsgD-GIzvi-17" value="Aucune recette n&#39;est affichée, un message d&#39;erreur apparaît en lieu et place pour suggérer à l&#39;utilisateur une nouvelle recherche" style="rounded=1;whiteSpace=wrap;html=1;" vertex="1" parent="1">
          <mxGeometry x="600" y="70" width="200" height="80" as="geometry" />
        </mxCell>
        <mxCell id="DtRh-H-SdKxsgD-GIzvi-19" value="Non&lt;br&gt;" style="text;html=1;align=center;verticalAlign=middle;resizable=0;points=[];autosize=1;strokeColor=none;" vertex="1" parent="1">
          <mxGeometry x="570" y="210" width="40" height="20" as="geometry" />
        </mxCell>
        <mxCell id="DtRh-H-SdKxsgD-GIzvi-20" value="Les recettes comprenant la valeur saisie par l&#39;utilisateur restent affichées sur la page. Les champs de recherche avancée sont mis à jour avec les ingrédients, appareils et ustensiles compris dans les recettes restantes." style="rounded=0;whiteSpace=wrap;html=1;" vertex="1" parent="1">
          <mxGeometry x="328" y="450" width="171" height="150" as="geometry" />
        </mxCell>
        <mxCell id="DtRh-H-SdKxsgD-GIzvi-21" value="" style="endArrow=classic;html=1;" edge="1" parent="1">
          <mxGeometry width="50" height="50" relative="1" as="geometry">
            <mxPoint x="410" y="370" as="sourcePoint" />
            <mxPoint x="410" y="440" as="targetPoint" />
          </mxGeometry>
        </mxCell>
        <mxCell id="DtRh-H-SdKxsgD-GIzvi-22" value="Oui" style="text;html=1;align=center;verticalAlign=middle;resizable=0;points=[];autosize=1;strokeColor=none;" vertex="1" parent="1">
          <mxGeometry x="415" y="400" width="30" height="20" as="geometry" />
        </mxCell>
        <mxCell id="DtRh-H-SdKxsgD-GIzvi-23" value="" style="endArrow=none;html=1;exitX=0.5;exitY=1;exitDx=0;exitDy=0;" edge="1" parent="1" source="DtRh-H-SdKxsgD-GIzvi-20" target="DtRh-H-SdKxsgD-GIzvi-24">
          <mxGeometry width="50" height="50" relative="1" as="geometry">
            <mxPoint x="409.5" y="620" as="sourcePoint" />
            <mxPoint x="409" y="600" as="targetPoint" />
          </mxGeometry>
        </mxCell>
        <mxCell id="DtRh-H-SdKxsgD-GIzvi-24" value="L&#39;utilisateur précise sa recette en ajoutant un tag à l&#39;aide des champs de recherche avancée ?" style="rounded=0;whiteSpace=wrap;html=1;" vertex="1" parent="1">
          <mxGeometry x="329" y="700" width="170" height="70" as="geometry" />
        </mxCell>
        <mxCell id="DtRh-H-SdKxsgD-GIzvi-25" value="" style="endArrow=classic;html=1;exitX=1;exitY=0.5;exitDx=0;exitDy=0;" edge="1" parent="1" source="DtRh-H-SdKxsgD-GIzvi-24">
          <mxGeometry width="50" height="50" relative="1" as="geometry">
            <mxPoint x="520" y="670" as="sourcePoint" />
            <mxPoint x="500" y="520" as="targetPoint" />
            <Array as="points">
              <mxPoint x="570" y="735" />
              <mxPoint x="570" y="520" />
            </Array>
          </mxGeometry>
        </mxCell>
        <mxCell id="DtRh-H-SdKxsgD-GIzvi-26" value="Oui" style="text;html=1;align=center;verticalAlign=middle;resizable=0;points=[];autosize=1;strokeColor=none;" vertex="1" parent="1">
          <mxGeometry x="520" y="740" width="30" height="20" as="geometry" />
        </mxCell>
        <mxCell id="DtRh-H-SdKxsgD-GIzvi-27" value="Un tag est ajouté, et garde dans la liste des résultats de recherche les recettes comprenant en plus des recherches précédentes le tag choisi dans ses ingrédients, appareils ou ustensiles" style="rounded=1;whiteSpace=wrap;html=1;" vertex="1" parent="1">
          <mxGeometry x="530" y="560" width="170" height="140" as="geometry" />
        </mxCell>
        <mxCell id="DtRh-H-SdKxsgD-GIzvi-30" value="L&#39;utilisateur choisit sa recette parmis celle ou celles restantes" style="rounded=1;whiteSpace=wrap;html=1;" vertex="1" parent="1">
          <mxGeometry x="560" y="840" width="220" height="60" as="geometry" />
        </mxCell>
        <mxCell id="DtRh-H-SdKxsgD-GIzvi-31" value="" style="endArrow=classic;html=1;exitX=0.847;exitY=1.014;exitDx=0;exitDy=0;exitPerimeter=0;entryX=0;entryY=0.5;entryDx=0;entryDy=0;" edge="1" parent="1" source="DtRh-H-SdKxsgD-GIzvi-24" target="DtRh-H-SdKxsgD-GIzvi-30">
          <mxGeometry width="50" height="50" relative="1" as="geometry">
            <mxPoint x="400" y="1020" as="sourcePoint" />
            <mxPoint x="450" y="970" as="targetPoint" />
            <Array as="points">
              <mxPoint x="473" y="870" />
            </Array>
          </mxGeometry>
        </mxCell>
        <mxCell id="DtRh-H-SdKxsgD-GIzvi-32" value="Non" style="text;html=1;align=center;verticalAlign=middle;resizable=0;points=[];autosize=1;strokeColor=none;" vertex="1" parent="1">
          <mxGeometry x="480" y="850" width="40" height="20" as="geometry" />
        </mxCell>
      </root>
    </mxGraphModel>
  </diagram>
</mxfile>
